<svg viewBox="0 0 73 73" xmlns="http://www.w3.org/2000/svg"><g fill="none" fill-rule="nonzero"><rect x="-1" y="-1" width="71" height="71" rx="14" transform="translate(2 2)" fill="#000" stroke="#fafafa" stroke-width="2"/><g fill="#fafafa"><path d="M48.25 24.131h9.895c1.024 0 1.855-.83 1.855-1.855v-4.947a1.855 1.855 0 0 0-1.855-1.854H48.25a1.855 1.855 0 0 0-1.855 1.854v4.947c0 1.025.831 1.855 1.855 1.855ZM48.25 35.263h9.895A1.855 1.855 0 0 0 60 33.409v-4.947a1.855 1.855 0 0 0-1.855-1.855H48.25c-1.024 0-1.855.83-1.855 1.855v4.947c0 1.024.831 1.854 1.855 1.854ZM48.25 46.395h9.895c1.024 0 1.855-.83 1.855-1.855v-4.947a1.855 1.855 0 0 0-1.855-1.855H48.25a1.856 1.856 0 0 0-1.855 1.855v4.947c0 1.024.831 1.855 1.855 1.855ZM31.553 24.131h9.896c1.024 0 1.855-.83 1.855-1.855v-4.947a1.855 1.855 0 0 0-1.855-1.854h-9.896a1.855 1.855 0 0 0-1.854 1.854v4.947a1.852 1.852 0 0 0 1.854 1.855ZM31.553 35.263h9.896a1.855 1.855 0 0 0 1.855-1.854v-4.947a1.855 1.855 0 0 0-1.855-1.855h-9.896c-1.023 0-1.854.83-1.854 1.855v4.947a1.851 1.851 0 0 0 1.854 1.854ZM14.855 24.131h9.895c1.023 0 1.855-.83 1.855-1.855v-4.947a1.855 1.855 0 0 0-1.855-1.854h-9.895A1.855 1.855 0 0 0 13 17.329v4.947c0 1.025.831 1.855 1.855 1.855ZM14.855 35.263h9.895a1.856 1.856 0 0 0 1.855-1.854v-4.947a1.856 1.856 0 0 0-1.855-1.855h-9.895c-1.024 0-1.855.83-1.855 1.855v4.947c0 1.024.831 1.854 1.855 1.854ZM14.855 46.395h9.895c1.023 0 1.855-.83 1.855-1.855v-4.947a1.856 1.856 0 0 0-1.855-1.855h-9.895A1.856 1.856 0 0 0 13 39.593v4.947c0 1.024.831 1.855 1.855 1.855ZM14.855 57.526h9.895a1.856 1.856 0 0 0 1.855-1.855v-4.947a1.856 1.856 0 0 0-1.855-1.855h-9.895c-1.024 0-1.855.83-1.855 1.855v4.947c0 1.025.831 1.855 1.855 1.855Z"/></g></g></svg>